<svg width="20" height="20" viewBox="0 0 20 20" fill="none" xmlns="http://www.w3.org/2000/svg">
<path fill-rule="evenodd" clip-rule="evenodd" d="M5.27921 4.13147C5.27921 4.02269 5.236 3.91836 5.15908 3.84144C5.08216 3.76453 4.97784 3.72131 4.86906 3.72131C4.8536 3.72131 4.83808 3.72131 4.82261 3.72131C4.71384 3.72131 4.60951 3.76453 4.53259 3.84144C4.45567 3.91836 4.41246 4.02269 4.41246 4.13147C4.41246 5.62893 4.41246 10.7916 4.41246 12.2891C4.41246 12.3979 4.45567 12.5022 4.53259 12.5791C4.60951 12.656 4.71384 12.6992 4.82261 12.6992C4.83808 12.6992 4.8536 12.6992 4.86906 12.6992C4.97784 12.6992 5.08216 12.656 5.15908 12.5791C5.236 12.5022 5.27921 12.3979 5.27921 12.2891C5.27921 10.7916 5.27921 5.62893 5.27921 4.13147Z" fill="black"/>
<path fill-rule="evenodd" clip-rule="evenodd" d="M8.71815 4.13145C8.71815 3.90494 8.53452 3.72131 8.30801 3.72131H8.26156C8.03504 3.72131 7.85141 3.90494 7.85141 4.13145C7.85141 5.92699 7.85141 13.0852 7.85141 14.8808C7.85141 15.1073 8.03504 15.2909 8.26156 15.2909H8.30801C8.53452 15.2909 8.71815 15.1073 8.71815 14.8808C8.71815 13.0852 8.71815 5.92699 8.71815 4.13145Z" fill="black"/>
<path fill-rule="evenodd" clip-rule="evenodd" d="M10.4355 4.13148C10.4355 4.0227 10.3922 3.91837 10.3153 3.84145C10.2384 3.76453 10.1341 3.72131 10.0253 3.72131C10.0098 3.72131 9.99433 3.72131 9.97886 3.72131C9.87009 3.72131 9.76576 3.76453 9.68884 3.84145C9.61192 3.91837 9.56871 4.0227 9.56871 4.13148C9.56871 6.03188 9.56871 13.9686 9.56871 15.8691C9.56871 15.9778 9.61192 16.0822 9.68884 16.1591C9.76576 16.236 9.87009 16.2792 9.97886 16.2792C9.99433 16.2792 10.0098 16.2792 10.0253 16.2792C10.1341 16.2792 10.2384 16.236 10.3153 16.1591C10.3922 16.0822 10.4355 15.9778 10.4355 15.8691C10.4355 13.9686 10.4355 6.03188 10.4355 4.13148Z" fill="black"/>
<path fill-rule="evenodd" clip-rule="evenodd" d="M12.1528 4.13145C12.1528 3.90494 11.9692 3.72131 11.7427 3.72131H11.6962C11.4697 3.72131 11.2861 3.90494 11.2861 4.13145C11.2861 5.92699 11.2861 13.0852 11.2861 14.8808C11.2861 15.1073 11.4697 15.2909 11.6962 15.2909H11.7427C11.9692 15.2909 12.1528 15.1073 12.1528 14.8808C12.1528 13.0852 12.1528 5.92699 12.1528 4.13145Z" fill="black"/>
<path fill-rule="evenodd" clip-rule="evenodd" d="M13.8702 4.13145C13.8702 4.02267 13.827 3.91835 13.7501 3.84144C13.6732 3.76452 13.5688 3.72131 13.4601 3.72131C13.4446 3.72131 13.4291 3.72131 13.4136 3.72131C13.3048 3.72131 13.2005 3.76452 13.1236 3.84144C13.0467 3.91835 13.0035 4.02267 13.0035 4.13145C13.0035 5.77527 13.0035 11.8773 13.0035 13.5211C13.0035 13.6299 13.0467 13.7342 13.1236 13.8111C13.2005 13.888 13.3048 13.9312 13.4136 13.9312C13.4291 13.9312 13.4446 13.9312 13.4601 13.9312C13.5688 13.9312 13.6732 13.888 13.7501 13.8111C13.827 13.7342 13.8702 13.6299 13.8702 13.5211C13.8702 11.8773 13.8702 5.77527 13.8702 4.13145Z" fill="black"/>
<path fill-rule="evenodd" clip-rule="evenodd" d="M15.5876 4.13147C15.5876 4.02269 15.5444 3.91836 15.4675 3.84144C15.3905 3.76453 15.2862 3.72131 15.1774 3.72131C15.162 3.72131 15.1465 3.72131 15.131 3.72131C15.0222 3.72131 14.9179 3.76453 14.841 3.84144C14.7641 3.91836 14.7208 4.02269 14.7208 4.13147C14.7208 5.62892 14.7208 10.7916 14.7208 12.2891C14.7208 12.3979 14.7641 12.5022 14.841 12.5791C14.9179 12.656 15.0222 12.6992 15.131 12.6992C15.1465 12.6992 15.162 12.6992 15.1774 12.6992C15.2862 12.6992 15.3905 12.656 15.4675 12.5791C15.5444 12.5022 15.5876 12.3979 15.5876 12.2891C15.5876 10.7916 15.5876 5.62892 15.5876 4.13147Z" fill="black"/>
<path fill-rule="evenodd" clip-rule="evenodd" d="M7.0008 4.13145C7.0008 3.90494 6.81717 3.72131 6.59065 3.72131C6.57378 3.72131 6.55686 3.72131 6.53999 3.72131C6.31347 3.72131 6.12983 3.90494 6.12983 4.13145C6.12983 5.77527 6.12983 11.8773 6.12983 13.5211C6.12983 13.7476 6.31347 13.9312 6.53999 13.9312C6.55686 13.9312 6.57378 13.9312 6.59065 13.9312C6.81717 13.9312 7.0008 13.7476 7.0008 13.5211C7.0008 11.8773 7.0008 5.77527 7.0008 4.13145Z" fill="black"/>
</svg>
